999
dxflib 2.2.0.0
  0
SECTION
  2
HEADER
  9
$ACADVER
  1
AC1015
  9
$HANDSEED
  5
FFFF
  9
$FILLMODE
 70
1
  9
$SPLINESEGS
 70
8
  9
$DIMEXE
 40
0.75
  9
$PSVPSCALE
 40
3.2806000000000002
  9
$DIMLUNIT
 70
2
  9
$GRIDMODE
 70
1
  9
$INSUNITS
 70
4
  9
$DIMADEC
 70
2
  9
$DIMASZ
 40
0.5
  9
$DIMGAP
 40
1.0
  9
$DIMTXT
 40
1.0
  9
$GRIDUNIT
 10
1.0
 20
1.0
  9
$DIMEXO
 40
1.0
  9
$LUPREC
 70
4
  9
$EXTMAX
 10
90.1269999999999953
 20
51.1270000000000024
 30
0.0
  9
$PINSBASE
 10
85.7772424823508715
 20
174.657162862093287
 30
0.0
  9
$DIMAUNIT
 70
0
  9
$AUPREC
 70
2
  9
$PLIMMIN
 10
0.0
 20
0.0
  9
$LUNITS
 70
2
  9
$EXTMIN
 10
67.8730000000000047
 20
36.8729999999999976
 30
0.0
  9
$PLIMMAX
 10
210.0
 20
297.0
  9
$DIMSTYLE
  2
Standard
  9
$AUNITS
 70
0
  0
ENDSEC
  0
SECTION
  2
TABLES
  0
TABLE
  2
VPORT
  5
8
100
AcDbSymbolTable
 70
1
  0
VPORT
  5
30
100
AcDbSymbolTableRecord
100
AcDbViewportTableRecord
  2
*Active
 70
0
 10
0.0
 20
0.0
 11
1.0
 21
1.0
 12
286.3055555555554861
 22
148.5
 13
0.0
 23
0.0
 14
10.0
 24
10.0
 15
10.0
 25
10.0
 16
0.0
 26
0.0
 36
1.0
 17
0.0
 27
0.0
 37
0.0
 40
297.0
 41
1.92798353909465
 42
50.0
 43
0.0
 44
0.0
 50
0.0
 51
0.0
 71
0
 72
100
 73
1
 74
3
 75
1
 76
1
 77
0
 78
0
281
0
 65
1
110
0.0
120
0.0
130
0.0
111
1.0
121
0.0
131
0.0
112
0.0
122
1.0
132
0.0
 79
0
146
0.0
  0
ENDTAB
  0
TABLE
  2
LTYPE
  5
5
100
AcDbSymbolTable
 70
21
  0
LTYPE
  5
14
100
AcDbSymbolTableRecord
100
AcDbLinetypeTableRecord
  2
ByBlock
 70
0
  3

 72
65
 73
0
 40
0.0
  0
LTYPE
  5
15
100
AcDbSymbolTableRecord
100
AcDbLinetypeTableRecord
  2
ByLayer
 70
0
  3

 72
65
 73
0
 40
0.0
  0
LTYPE
  5
16
100
AcDbSymbolTableRecord
100
AcDbLinetypeTableRecord
  2
CONTINUOUS
 70
0
  3
Solid line
 72
65
 73
0
 40
0.0
  0
LTYPE
  5
31
100
AcDbSymbolTableRecord
100
AcDbLinetypeTableRecord
  2
DOT
 70
0
  3
Dot . . . . . . . . . . . . . . . . . . . . . .
 72
65
 73
2
 40
6.3499999999999996
 49
0.0
 74
0
 49
-6.3499999999999996
 74
0
  0
LTYPE
  5
32
100
AcDbSymbolTableRecord
100
AcDbLinetypeTableRecord
  2
DOT2
 70
0
  3
Dot (.5x) .....................................
 72
65
 73
2
 40
3.1749999999999998
 49
0.0
 74
0
 49
-3.1749999999999998
 74
0
  0
LTYPE
  5
33
100
AcDbSymbolTableRecord
100
AcDbLinetypeTableRecord
  2
DOTX2
 70
0
  3
Dot (2x) .  .  .  .  .  .  .  .  .  .  .  .  .
 72
65
 73
2
 40
12.6999999999999993
 49
0.0
 74
0
 49
-12.6999999999999993
 74
0
  0
LTYPE
  5
34
100
AcDbSymbolTableRecord
100
AcDbLinetypeTableRecord
  2
DASHED
 70
0
  3
Dashed __ __ __ __ __ __ __ __ __ __ __ __ __ _
 72
65
 73
2
 40
19.0500000000000007
 49
12.6999999999999993
 74
0
 49
-6.3499999999999996
 74
0
  0
LTYPE
  5
35
100
AcDbSymbolTableRecord
100
AcDbLinetypeTableRecord
  2
DASHED2
 70
0
  3
Dashed (.5x) _ _ _ _ _ _ _ _ _ _ _ _ _ _ _ _ _
 72
65
 73
2
 40
9.5250000000000004
 49
6.3499999999999996
 74
0
 49
-3.1749999999999998
 74
0
  0
LTYPE
  5
36
100
AcDbSymbolTableRecord
100
AcDbLinetypeTableRecord
  2
DASHEDX2
 70
0
  3
Dashed (2x) ____  ____  ____  ____  ____  ___
 72
65
 73
2
 40
38.1000000000000014
 49
25.3999999999999986
 74
0
 49
-12.6999999999999993
 74
0
  0
LTYPE
  5
37
100
AcDbSymbolTableRecord
100
AcDbLinetypeTableRecord
  2
DASHDOT
 70
0
  3
Dash dot __ . __ . __ . __ . __ . __ . __ . __
 72
65
 73
4
 40
25.3999999999999986
 49
12.6999999999999993
 74
0
 49
-6.3499999999999996
 74
0
 49
0.0
 74
0
 49
-6.3499999999999996
 74
0
  0
LTYPE
  5
38
100
AcDbSymbolTableRecord
100
AcDbLinetypeTableRecord
  2
DASHDOT2
 70
0
  3
Dash dot (.5x) _._._._._._._._._._._._._._._.
 72
65
 73
4
 40
12.6999999999999993
 49
6.3499999999999996
 74
0
 49
-3.1749999999999998
 74
0
 49
0.0
 74
0
 49
-3.1749999999999998
 74
0
  0
LTYPE
  5
39
100
AcDbSymbolTableRecord
100
AcDbLinetypeTableRecord
  2
DASHDOTX2
 70
0
  3
Dash dot (2x) ____  .  ____  .  ____  .  ___
 72
65
 73
4
 40
50.7999999999999972
 49
25.3999999999999986
 74
0
 49
-12.6999999999999993
 74
0
 49
0.0
 74
0
 49
-12.6999999999999993
 74
0
  0
LTYPE
  5
3A
100
AcDbSymbolTableRecord
100
AcDbLinetypeTableRecord
  2
DIVIDE
 70
0
  3
Divide ____ . . ____ . . ____ . . ____ . . ____
 72
65
 73
6
 40
31.75
 49
12.6999999999999993
 74
0
 49
-6.3499999999999996
 74
0
 49
0.0
 74
0
 49
-6.3499999999999996
 74
0
 49
0.0
 74
0
 49
-6.3499999999999996
 74
0
  0
LTYPE
  5
3B
100
AcDbSymbolTableRecord
100
AcDbLinetypeTableRecord
  2
DIVIDE2
 70
0
  3
Divide (.5x) __..__..__..__..__..__..__..__.._
 72
65
 73
6
 40
15.875
 49
6.3499999999999996
 74
0
 49
-3.1749999999999998
 74
0
 49
0.0
 74
0
 49
-3.1749999999999998
 74
0
 49
0.0
 74
0
 49
-3.1749999999999998
 74
0
  0
LTYPE
  5
3C
100
AcDbSymbolTableRecord
100
AcDbLinetypeTableRecord
  2
DIVIDEX2
 70
0
  3
Divide (2x) ________  .  .  ________  .  .  _
 72
65
 73
6
 40
63.5
 49
25.3999999999999986
 74
0
 49
-12.6999999999999993
 74
0
 49
0.0
 74
0
 49
-12.6999999999999993
 74
0
 49
0.0
 74
0
 49
-12.6999999999999993
 74
0
  0
LTYPE
  5
3D
100
AcDbSymbolTableRecord
100
AcDbLinetypeTableRecord
  2
CENTER
 70
0
  3
Center ____ _ ____ _ ____ _ ____ _ ____ _ ____
 72
65
 73
4
 40
50.7999999999999972
 49
31.75
 74
0
 49
-6.3499999999999996
 74
0
 49
6.3499999999999996
 74
0
 49
-6.3499999999999996
 74
0
  0
LTYPE
  5
3E
100
AcDbSymbolTableRecord
100
AcDbLinetypeTableRecord
  2
CENTER2
 70
0
  3
Center (.5x) ___ _ ___ _ ___ _ ___ _ ___ _ ___
 72
65
 73
4
 40
28.5749999999999993
 49
19.0500000000000007
 74
0
 49
-3.1749999999999998
 74
0
 49
3.1749999999999998
 74
0
 49
-3.1749999999999998
 74
0
  0
LTYPE
  5
3F
100
AcDbSymbolTableRecord
100
AcDbLinetypeTableRecord
  2
CENTERX2
 70
0
  3
Center (2x) ________  __  ________  __  _____
 72
65
 73
4
 40
101.5999999999999943
 49
63.5
 74
0
 49
-12.6999999999999993
 74
0
 49
12.6999999999999993
 74
0
 49
-12.6999999999999993
 74
0
  0
LTYPE
  5
40
100
AcDbSymbolTableRecord
100
AcDbLinetypeTableRecord
  2
BORDER
 70
0
  3
Border __ __ . __ __ . __ __ . __ __ . __ __ .
 72
65
 73
6
 40
44.4500000000000028
 49
12.6999999999999993
 74
0
 49
-6.3499999999999996
 74
0
 49
12.6999999999999993
 74
0
 49
-6.3499999999999996
 74
0
 49
0.0
 74
0
 49
-6.3499999999999996
 74
0
  0
LTYPE
  5
41
100
AcDbSymbolTableRecord
100
AcDbLinetypeTableRecord
  2
BORDER2
 70
0
  3
Border (.5x) __.__.__.__.__.__.__.__.__.__.__.
 72
65
 73
6
 40
22.2250000000000014
 49
6.3499999999999996
 74
0
 49
-3.1749999999999998
 74
0
 49
6.3499999999999996
 74
0
 49
-3.1749999999999998
 74
0
 49
0.0
 74
0
 49
-3.1749999999999998
 74
0
  0
LTYPE
  5
42
100
AcDbSymbolTableRecord
100
AcDbLinetypeTableRecord
  2
BORDERX2
 70
0
  3
Border (2x) ____  ____  .  ____  ____  .  ___
 72
65
 73
6
 40
88.9000000000000057
 49
25.3999999999999986
 74
0
 49
-12.6999999999999993
 74
0
 49
25.3999999999999986
 74
0
 49
-12.6999999999999993
 74
0
 49
0.0
 74
0
 49
-12.6999999999999993
 74
0
  0
ENDTAB
  0
TABLE
  2
LAYER
  5
2
100
AcDbSymbolTable
 70
4
  0
LAYER
  5
10
100
AcDbSymbolTableRecord
100
AcDbLayerTableRecord
  2
0
 70
0
 62
7
  6
CONTINUOUS
370
0
390
F
  0
LAYER
  5
43
100
AcDbSymbolTableRecord
100
AcDbLayerTableRecord
  2
Outline
 70
0
 62
7
  6
CONTINUOUS
370
-3
390
F
  0
LAYER
  5
44
100
AcDbSymbolTableRecord
100
AcDbLayerTableRecord
  2
Folds
 70
0
 62
8
  6
CONTINUOUS
370
0
390
F
  0
LAYER
  5
45
100
AcDbSymbolTableRecord
100
AcDbLayerTableRecord
  2
Dimensions
 70
0
 62
3
  6
CONTINUOUS
370
0
390
F
  0
ENDTAB
  0
TABLE
  2
STYLE
  5
3
100
AcDbSymbolTable
 70
1
  0
STYLE
  5
11
100
AcDbSymbolTableRecord
100
AcDbTextStyleTableRecord
  2
Standard
 70
0
 40
0.0
 41
0.75
 50
0.0
 71
0
 42
2.5
  3
txt
  4

  0
ENDTAB
  0
TABLE
  2
VIEW
  5
6
100
AcDbSymbolTable
 70
0
  0
ENDTAB
  0
TABLE
  2
UCS
  5
7
100
AcDbSymbolTable
 70
0
  0
ENDTAB
  0
TABLE
  2
APPID
  5
9
100
AcDbSymbolTable
 70
1
  0
APPID
  5
12
100
AcDbSymbolTableRecord
100
AcDbRegAppTableRecord
  2
ACAD
 70
0
  0
ENDTAB
  0
TABLE
  2
DIMSTYLE
  5
A
100
AcDbSymbolTable
 70
1
100
AcDbDimStyleTable
 71
0
  0
DIMSTYLE
105
27
100
AcDbSymbolTableRecord
100
AcDbDimStyleTableRecord
  2
Standard
 41
0.5
 42
1.0
 43
3.75
 44
0.75
 70
0
 73
0
 74
0
 77
1
 78
8
140
1.0
141
2.5
143
0.03937007874016
147
1.0
171
3
172
1
271
2
272
2
274
3
278
44
283
0
284
8
340
11
  0
ENDTAB
  0
TABLE
  2
BLOCK_RECORD
  5
1
100
AcDbSymbolTable
 70
1
  0
BLOCK_RECORD
  5
1F
100
AcDbSymbolTableRecord
100
AcDbBlockTableRecord
  2
*Model_Space
340
22
  0
BLOCK_RECORD
  5
1B
100
AcDbSymbolTableRecord
100
AcDbBlockTableRecord
  2
*Paper_Space
340
1E
  0
BLOCK_RECORD
  5
23
100
AcDbSymbolTableRecord
100
AcDbBlockTableRecord
  2
*Paper_Space0
340
26
  0
BLOCK_RECORD
  5
46
100
AcDbSymbolTableRecord
100
AcDbBlockTableRecord
  2
RECT
340
0
  0
BLOCK_RECORD
  5
47
100
AcDbSymbolTableRecord
100
AcDbBlockTableRecord
  2
PIE
340
0
  0
BLOCK_RECORD
  5
48
100
AcDbSymbolTableRecord
100
AcDbBlockTableRecord
  2
OCTAGONP
340
0
  0
BLOCK_RECORD
  5
49
100
AcDbSymbolTableRecord
100
AcDbBlockTableRecord
  2
SQUAREP
340
0
  0
BLOCK_RECORD
  5
4A
100
AcDbSymbolTableRecord
100
AcDbBlockTableRecord
  2
ROUNDP
340
0
  0
BLOCK_RECORD
  5
4B
100
AcDbSymbolTableRecord
100
AcDbBlockTableRecord
  2
ANNULUSP
340
0
  0
BLOCK_RECORD
  5
4C
100
AcDbSymbolTableRecord
100
AcDbBlockTableRecord
  2
THERMALP
340
0
  0
BLOCK_RECORD
  5
4D
100
AcDbSymbolTableRecord
100
AcDbBlockTableRecord
  2
OCTAGONV
340
0
  0
BLOCK_RECORD
  5
4E
100
AcDbSymbolTableRecord
100
AcDbBlockTableRecord
  2
SQUAREV
340
0
  0
BLOCK_RECORD
  5
4F
100
AcDbSymbolTableRecord
100
AcDbBlockTableRecord
  2
ROUNDV
340
0
  0
BLOCK_RECORD
  5
50
100
AcDbSymbolTableRecord
100
AcDbBlockTableRecord
  2
ANNULUSV
340
0
  0
BLOCK_RECORD
  5
51
100
AcDbSymbolTableRecord
100
AcDbBlockTableRecord
  2
THERMALV
340
0
  0
ENDTAB
  0
ENDSEC
  0
SECTION
  2
BLOCKS
  0
BLOCK
  5
20
100
AcDbEntity
  8
0
100
AcDbBlockBegin
  2
*Model_Space
 70
0
 10
0.0
 20
0.0
 30
0.0
  3
*Model_Space
  1

  0
ENDBLK
  5
21
100
AcDbEntity
  8
0
100
AcDbBlockEnd
  0
BLOCK
  5
1C
100
AcDbEntity
 67
1
  8
0
100
AcDbBlockBegin
  2
*Paper_Space
 70
0
 10
0.0
 20
0.0
 30
0.0
  3
*Paper_Space
  1

  0
ENDBLK
  5
1D
100
AcDbEntity
 67
1
  8
0
100
AcDbBlockEnd
  0
BLOCK
  5
24
100
AcDbEntity
  8
0
100
AcDbBlockBegin
  2
*Paper_Space0
 70
0
 10
0.0
 20
0.0
 30
0.0
  3
*Paper_Space0
  1

  0
ENDBLK
  5
25
100
AcDbEntity
  8
0
100
AcDbBlockEnd
  0
BLOCK
  5
52
100
AcDbEntity
  8
0
100
AcDbBlockBegin
  2
RECT
 70
0
 10
0.0
 20
0.0
 30
0.0
  3
RECT
  1

  0
ENDBLK
  5
53
100
AcDbEntity
  8
0
100
AcDbBlockEnd
  0
BLOCK
  5
54
100
AcDbEntity
  8
0
100
AcDbBlockBegin
  2
PIE
 70
0
 10
0.0
 20
0.0
 30
0.0
  3
PIE
  1

  0
LWPOLYLINE
  5
55
  8
0
 62
256
370
-1
  6
ByLayer
100
AcDbEntity
100
AcDbPolyline
 90
3
 70
0
 10
-0.0
 20
-0.25
 42
0.9999999999999999
 10
0.0
 20
0.25
 42
0.9999999999999999
 10
-0.0
 20
-0.25
  0
ENDBLK
  5
56
100
AcDbEntity
  8
0
100
AcDbBlockEnd
  0
BLOCK
  5
57
100
AcDbEntity
  8
0
100
AcDbBlockBegin
  2
OCTAGONP
 70
0
 10
0.0
 20
0.0
 30
0.0
  3
OCTAGONP
  1

  0
LWPOLYLINE
  5
58
  8
0
 62
256
370
-1
  6
ByLayer
100
AcDbEntity
100
AcDbPolyline
 90
10
 70
0
 10
-0.25
 20
-0.1036
 10
-0.25
 20
0.1036
 10
-0.1036
 20
0.25
 10
0.1036
 20
0.25
 10
0.25
 20
0.1036
 10
0.25
 20
-0.1036
 10
0.1036
 20
-0.25
 10
-0.1036
 20
-0.25
 10
-0.25
 20
-0.1036
 10
-0.25
 20
0.1036
  0
ENDBLK
  5
59
100
AcDbEntity
  8
0
100
AcDbBlockEnd
  0
BLOCK
  5
5A
100
AcDbEntity
  8
0
100
AcDbBlockBegin
  2
SQUAREP
 70
0
 10
0.0
 20
0.0
 30
0.0
  3
SQUAREP
  1

  0
ENDBLK
  5
5B
100
AcDbEntity
  8
0
100
AcDbBlockEnd
  0
BLOCK
  5
5C
100
AcDbEntity
  8
0
100
AcDbBlockBegin
  2
ROUNDP
 70
0
 10
0.0
 20
0.0
 30
0.0
  3
ROUNDP
  1

  0
LWPOLYLINE
  5
5D
  8
0
 62
256
370
-1
  6
ByLayer
100
AcDbEntity
100
AcDbPolyline
 90
3
 70
0
 10
-0.0
 20
-0.25
 42
0.9999999999999999
 10
0.0
 20
0.25
 42
0.9999999999999999
 10
-0.0
 20
-0.25
  0
ENDBLK
  5
5E
100
AcDbEntity
  8
0
100
AcDbBlockEnd
  0
BLOCK
  5
5F
100
AcDbEntity
  8
0
100
AcDbBlockBegin
  2
ANNULUSP
 70
0
 10
0.0
 20
0.0
 30
0.0
  3
ANNULUSP
  1

  0
LWPOLYLINE
  5
60
  8
0
 62
256
370
-1
  6
ByLayer
100
AcDbEntity
100
AcDbPolyline
 90
3
 70
0
 10
-0.0
 20
-0.25
 42
0.9999999999999999
 10
0.0
 20
0.25
 42
0.9999999999999999
 10
-0.0
 20
-0.25
  0
ENDBLK
  5
61
100
AcDbEntity
  8
0
100
AcDbBlockEnd
  0
BLOCK
  5
62
100
AcDbEntity
  8
0
100
AcDbBlockBegin
  2
THERMALP
 70
0
 10
0.0
 20
0.0
 30
0.0
  3
THERMALP
  1

  0
LWPOLYLINE
  5
63
  8
0
 62
256
370
-1
  6
ByLayer
100
AcDbEntity
100
AcDbPolyline
 90
2
 70
0
 10
-0.2379
 20
0.45
 10
0.2379
 20
0.45
  0
LWPOLYLINE
  5
64
  8
0
 62
256
370
-1
  6
ByLayer
100
AcDbEntity
100
AcDbPolyline
 90
2
 70
0
 10
0.2379
 20
0.4249999999999999
 42
0.9999999999999999
 10
0.2379
 20
0.475
 42
0.9999999999999999
  0
LWPOLYLINE
  5
65
  8
0
 62
256
370
-1
  6
ByLayer
100
AcDbEntity
100
AcDbPolyline
 90
2
 70
0
 10
-0.2379
 20
0.475
 42
0.9999999999999999
 10
-0.2379
 20
0.4249999999999999
 42
0.9999999999999999
  0
LWPOLYLINE
  5
66
  8
0
 62
256
370
-1
  6
ByLayer
100
AcDbEntity
100
AcDbPolyline
 90
2
 70
0
 10
0.45
 20
0.2379
 10
0.45
 20
-0.2379
  0
LWPOLYLINE
  5
67
  8
0
 62
256
370
-1
  6
ByLayer
100
AcDbEntity
100
AcDbPolyline
 90
2
 70
0
 10
0.4249999999999999
 20
-0.2379
 42
0.9999999999999999
 10
0.475
 20
-0.2379
 42
0.9999999999999999
  0
LWPOLYLINE
  5
68
  8
0
 62
256
370
-1
  6
ByLayer
100
AcDbEntity
100
AcDbPolyline
 90
2
 70
0
 10
0.475
 20
0.2379
 42
0.9999999999999999
 10
0.4249999999999999
 20
0.2379
 42
0.9999999999999999
  0
LWPOLYLINE
  5
69
  8
0
 62
256
370
-1
  6
ByLayer
100
AcDbEntity
100
AcDbPolyline
 90
2
 70
0
 10
0.2379
 20
-0.45
 10
-0.2379
 20
-0.45
  0
LWPOLYLINE
  5
6A
  8
0
 62
256
370
-1
  6
ByLayer
100
AcDbEntity
100
AcDbPolyline
 90
2
 70
0
 10
-0.2379
 20
-0.4249999999999999
 42
0.9999999999999999
 10
-0.2379
 20
-0.475
 42
0.9999999999999999
  0
LWPOLYLINE
  5
6B
  8
0
 62
256
370
-1
  6
ByLayer
100
AcDbEntity
100
AcDbPolyline
 90
2
 70
0
 10
0.2379
 20
-0.475
 42
0.9999999999999999
 10
0.2379
 20
-0.4249999999999999
 42
0.9999999999999999
  0
LWPOLYLINE
  5
6C
  8
0
 62
256
370
-1
  6
ByLayer
100
AcDbEntity
100
AcDbPolyline
 90
2
 70
0
 10
-0.45
 20
-0.2379
 10
-0.45
 20
0.2379
  0
LWPOLYLINE
  5
6D
  8
0
 62
256
370
-1
  6
ByLayer
100
AcDbEntity
100
AcDbPolyline
 90
2
 70
0
 10
-0.4249999999999999
 20
0.2379
 42
0.9999999999999999
 10
-0.475
 20
0.2379
 42
0.9999999999999999
  0
LWPOLYLINE
  5
6E
  8
0
 62
256
370
-1
  6
ByLayer
100
AcDbEntity
100
AcDbPolyline
 90
2
 70
0
 10
-0.475
 20
-0.2379
 42
0.9999999999999999
 10
-0.4249999999999999
 20
-0.2379
 42
0.9999999999999999
  0
ENDBLK
  5
6F
100
AcDbEntity
  8
0
100
AcDbBlockEnd
  0
BLOCK
  5
70
100
AcDbEntity
  8
0
100
AcDbBlockBegin
  2
OCTAGONV
 70
0
 10
0.0
 20
0.0
 30
0.0
  3
OCTAGONV
  1

  0
LWPOLYLINE
  5
71
  8
0
 62
256
370
-1
  6
ByLayer
100
AcDbEntity
100
AcDbPolyline
 90
10
 70
0
 10
-0.25
 20
-0.1036
 10
-0.25
 20
0.1036
 10
-0.1036
 20
0.25
 10
0.1036
 20
0.25
 10
0.25
 20
0.1036
 10
0.25
 20
-0.1036
 10
0.1036
 20
-0.25
 10
-0.1036
 20
-0.25
 10
-0.25
 20
-0.1036
 10
-0.25
 20
0.1036
  0
ENDBLK
  5
72
100
AcDbEntity
  8
0
100
AcDbBlockEnd
  0
BLOCK
  5
73
100
AcDbEntity
  8
0
100
AcDbBlockBegin
  2
SQUAREV
 70
0
 10
0.0
 20
0.0
 30
0.0
  3
SQUAREV
  1

  0
ENDBLK
  5
74
100
AcDbEntity
  8
0
100
AcDbBlockEnd
  0
BLOCK
  5
75
100
AcDbEntity
  8
0
100
AcDbBlockBegin
  2
ROUNDV
 70
0
 10
0.0
 20
0.0
 30
0.0
  3
ROUNDV
  1

  0
LWPOLYLINE
  5
76
  8
0
 62
256
370
-1
  6
ByLayer
100
AcDbEntity
100
AcDbPolyline
 90
3
 70
0
 10
-0.0
 20
-0.25
 42
0.9999999999999999
 10
0.0
 20
0.25
 42
0.9999999999999999
 10
-0.0
 20
-0.25
  0
ENDBLK
  5
77
100
AcDbEntity
  8
0
100
AcDbBlockEnd
  0
BLOCK
  5
78
100
AcDbEntity
  8
0
100
AcDbBlockBegin
  2
ANNULUSV
 70
0
 10
0.0
 20
0.0
 30
0.0
  3
ANNULUSV
  1

  0
LWPOLYLINE
  5
79
  8
0
 62
256
370
-1
  6
ByLayer
100
AcDbEntity
100
AcDbPolyline
 90
3
 70
0
 10
-0.0
 20
-0.25
 42
0.9999999999999999
 10
0.0
 20
0.25
 42
0.9999999999999999
 10
-0.0
 20
-0.25
  0
ENDBLK
  5
7A
100
AcDbEntity
  8
0
100
AcDbBlockEnd
  0
BLOCK
  5
7B
100
AcDbEntity
  8
0
100
AcDbBlockBegin
  2
THERMALV
 70
0
 10
0.0
 20
0.0
 30
0.0
  3
THERMALV
  1

  0
LWPOLYLINE
  5
7C
  8
0
 62
256
370
-1
  6
ByLayer
100
AcDbEntity
100
AcDbPolyline
 90
2
 70
0
 10
-0.2379
 20
0.45
 10
0.2379
 20
0.45
  0
LWPOLYLINE
  5
7D
  8
0
 62
256
370
-1
  6
ByLayer
100
AcDbEntity
100
AcDbPolyline
 90
2
 70
0
 10
0.2379
 20
0.4249999999999999
 42
0.9999999999999999
 10
0.2379
 20
0.475
 42
0.9999999999999999
  0
LWPOLYLINE
  5
7E
  8
0
 62
256
370
-1
  6
ByLayer
100
AcDbEntity
100
AcDbPolyline
 90
2
 70
0
 10
-0.2379
 20
0.475
 42
0.9999999999999999
 10
-0.2379
 20
0.4249999999999999
 42
0.9999999999999999
  0
LWPOLYLINE
  5
7F
  8
0
 62
256
370
-1
  6
ByLayer
100
AcDbEntity
100
AcDbPolyline
 90
2
 70
0
 10
0.45
 20
0.2379
 10
0.45
 20
-0.2379
  0
LWPOLYLINE
  5
80
  8
0
 62
256
370
-1
  6
ByLayer
100
AcDbEntity
100
AcDbPolyline
 90
2
 70
0
 10
0.4249999999999999
 20
-0.2379
 42
0.9999999999999999
 10
0.475
 20
-0.2379
 42
0.9999999999999999
  0
LWPOLYLINE
  5
81
  8
0
 62
256
370
-1
  6
ByLayer
100
AcDbEntity
100
AcDbPolyline
 90
2
 70
0
 10
0.475
 20
0.2379
 42
0.9999999999999999
 10
0.4249999999999999
 20
0.2379
 42
0.9999999999999999
  0
LWPOLYLINE
  5
82
  8
0
 62
256
370
-1
  6
ByLayer
100
AcDbEntity
100
AcDbPolyline
 90
2
 70
0
 10
0.2379
 20
-0.45
 10
-0.2379
 20
-0.45
  0
LWPOLYLINE
  5
83
  8
0
 62
256
370
-1
  6
ByLayer
100
AcDbEntity
100
AcDbPolyline
 90
2
 70
0
 10
-0.2379
 20
-0.4249999999999999
 42
0.9999999999999999
 10
-0.2379
 20
-0.475
 42
0.9999999999999999
  0
LWPOLYLINE
  5
84
  8
0
 62
256
370
-1
  6
ByLayer
100
AcDbEntity
100
AcDbPolyline
 90
2
 70
0
 10
0.2379
 20
-0.475
 42
0.9999999999999999
 10
0.2379
 20
-0.4249999999999999
 42
0.9999999999999999
  0
LWPOLYLINE
  5
85
  8
0
 62
256
370
-1
  6
ByLayer
100
AcDbEntity
100
AcDbPolyline
 90
2
 70
0
 10
-0.45
 20
-0.2379
 10
-0.45
 20
0.2379
  0
LWPOLYLINE
  5
86
  8
0
 62
256
370
-1
  6
ByLayer
100
AcDbEntity
100
AcDbPolyline
 90
2
 70
0
 10
-0.4249999999999999
 20
0.2379
 42
0.9999999999999999
 10
-0.475
 20
0.2379
 42
0.9999999999999999
  0
LWPOLYLINE
  5
87
  8
0
 62
256
370
-1
  6
ByLayer
100
AcDbEntity
100
AcDbPolyline
 90
2
 70
0
 10
-0.475
 20
-0.2379
 42
0.9999999999999999
 10
-0.4249999999999999
 20
-0.2379
 42
0.9999999999999999
  0
ENDBLK
  5
88
100
AcDbEntity
  8
0
100
AcDbBlockEnd
  0
ENDSEC
  0
SECTION
  2
ENTITIES
  0
LINE
  5
89
100
AcDbEntity
100
AcDbLine
  8
Outline
 62
256
370
-1
  6
ByLayer
 10
-10.8343000000000007
 20
1.5933999999999999
 30
0.0
 11
-11.8401999999999994
 21
5.4649000000000001
 31
0.0
  0
LINE
  5
8A
100
AcDbEntity
100
AcDbLine
  8
Folds
 62
256
370
-1
  6
ByLayer
 10
-10.3314000000000004
 20
-0.3423
 30
0.0
 11
-10.0
 21
-10.3368000000000002
 31
0.0
  0
LINE
  5
8B
100
AcDbEntity
100
AcDbLine
  8
Folds
 62
256
370
-1
  6
ByLayer
 10
-10.3314000000000004
 20
-0.3423
 30
0.0
 11
-10.8343000000000007
 21
1.5933999999999999
 31
0.0
  0
LINE
  5
8C
100
AcDbEntity
100
AcDbLine
  8
Folds
 62
256
370
-1
  6
ByLayer
 10
-10.0
 20
-10.3368000000000002
 30
0.0
 11
0.0
 21
-10.3368000000000002
 31
0.0
  0
LINE
  5
8D
100
AcDbEntity
100
AcDbLine
  8
Outline
 62
256
370
-1
  6
ByLayer
 10
-0.375
 20
-0.4472
 30
0.0
 11
-0.363
 21
-0.8100000000000001
 31
0.0
  0
LINE
  5
8E
100
AcDbEntity
100
AcDbLine
  8
Outline
 62
256
370
-1
  6
ByLayer
 10
-0.363
 20
-0.8100000000000001
 30
0.0
 11
0.0
 21
-0.8100000000000001
 31
0.0
  0
LINE
  5
8F
100
AcDbEntity
100
AcDbLine
  8
Outline
 62
256
370
-1
  6
ByLayer
 10
0.3629999999999997
 20
-0.8100000000000003
 30
0.0
 11
-0.0000000000000001
 21
-0.8100000000000001
 31
0.0
  0
LINE
  5
90
100
AcDbEntity
100
AcDbLine
  8
Folds
 62
256
370
-1
  6
ByLayer
 10
-10.3314000000000004
 20
-0.3423
 30
0.0
 11
-0.374998436798224
 21
-0.4472472608003439
 31
0.0
  0
LINE
  5
91
100
AcDbEntity
100
AcDbLine
  8
Folds
 62
256
370
-1
  6
ByLayer
 10
10.0000000000000036
 20
-10.3367999999999949
 30
0.0
 11
-0.0000000000000017
 21
-10.3368000000000002
 31
0.0
  0
MTEXT
  5
92
100
AcDbEntity
100
AcDbMText
  8
Dimensions
 62
256
370
-1
  6
ByLayer
 10
17.0
 20
-13.0
 30
0.0
 40
1.0
 41
100.0
 71
1
 72
2
  1
PhysHolder v4\P10-deg lean\P\PDickinson Lab\PUniversity of Washington\Pstevesafarik@gmail.com\P\PUnits are millimeters.\P\P
  7
iso
 50
0.0
 73
0
 44
1.0
  0
LINE
  5
93
100
AcDbEntity
100
AcDbLine
  8
Folds
 62
256
370
-1
  6
ByLayer
 10
-10.3314000000000004
 20
-0.3423
 30
0.0
 11
-12.3420000000000005
 21
-0.0561999999999998
 31
0.0
  0
LINE
  5
94
100
AcDbEntity
100
AcDbLine
  8
Folds
 62
256
370
-1
  6
ByLayer
 10
-12.3935831953083682
 20
1.4993994273860429
 30
0.0
 11
-12.3420000000000005
 21
-0.0562000000000002
 31
0.0
  0
ARC
  5
95
100
AcDbEntity
  8
Outline
 62
256
370
-1
  6
ByLayer
100
AcDbCircle
 10
-12.3420000000000005
 20
-0.0562
 30
0.0
 40
4.0
100
AcDbArc
 50
121.8844084278841251
 51
181.8992144072812209
  0
LINE
  5
96
100
AcDbEntity
100
AcDbLine
  8
Folds
 62
256
370
-1
  6
ByLayer
 10
-12.3935831953083682
 20
1.4993994273860429
 30
0.0
 11
-10.9360537178586554
 21
1.5872658302910645
 31
0.0
  0
LINE
  5
97
100
AcDbEntity
100
AcDbLine
  8
Outline
 62
256
370
-1
  6
ByLayer
 10
-10.9360537178586554
 20
1.5872658302910645
 30
0.0
 11
-10.8343000000000007
 21
1.5933999999999999
 31
0.0
  0
LINE
  5
98
100
AcDbEntity
100
AcDbLine
  8
Outline
 62
256
370
-1
  6
ByLayer
 10
-0.05
 20
8.3958703113123097
 30
0.0
 11
-11.8401999999999994
 21
5.4649000000000001
 31
0.0
  0
ARC
  5
99
100
AcDbEntity
  8
Outline
 62
256
370
-1
  6
ByLayer
100
AcDbCircle
 10
0.0
 20
-0.4512
 30
0.0
 40
0.375
100
AcDbArc
 50
97.6622556607663057
 51
179.3960857848802846
  0
LINE
  5
9A
100
AcDbEntity
100
AcDbLine
  8
Outline
 62
256
370
-1
  6
ByLayer
 10
10.8342999999999989
 20
1.5933999999999973
 30
0.0
 11
11.8401999999999976
 21
5.4648999999999992
 31
0.0
  0
LINE
  5
9B
100
AcDbEntity
100
AcDbLine
  8
Folds
 62
256
370
-1
  6
ByLayer
 10
10.3313999999999968
 20
-0.342300000000006
 30
0.0
 11
10.0000000000000071
 21
-10.3367999999999967
 31
0.0
  0
LINE
  5
9C
100
AcDbEntity
100
AcDbLine
  8
Folds
 62
256
370
-1
  6
ByLayer
 10
10.3313999999999968
 20
-0.342300000000006
 30
0.0
 11
10.8342999999999989
 21
1.5933999999999973
 31
0.0
  0
LINE
  5
9D
100
AcDbEntity
100
AcDbLine
  8
Folds
 62
256
370
-1
  6
ByLayer
 10
10.0000000000000071
 20
-10.3367999999999967
 30
0.0
 11
-0.0000000000000032
 21
-10.3368000000000002
 31
0.0
  0
LINE
  5
9E
100
AcDbEntity
100
AcDbLine
  8
Outline
 62
256
370
-1
  6
ByLayer
 10
0.3749999999999956
 20
-0.4471999999999996
 30
0.0
 11
0.3629999999999995
 21
-0.8100000000000005
 31
0.0
  0
LINE
  5
9F
100
AcDbEntity
100
AcDbLine
  8
Outline
 62
256
370
-1
  6
ByLayer
 10
0.3629999999999995
 20
-0.8100000000000005
 30
0.0
 11
-0.0000000000000014
 21
-0.8100000000000005
 31
0.0
  0
LINE
  5
A0
100
AcDbEntity
100
AcDbLine
  8
Folds
 62
256
370
-1
  6
ByLayer
 10
10.3313999999999968
 20
-0.342300000000006
 30
0.0
 11
0.3749984367982236
 21
-0.447247260800343
 31
0.0
  0
LINE
  5
A1
100
AcDbEntity
100
AcDbLine
  8
Folds
 62
256
370
-1
  6
ByLayer
 10
10.3313999999999968
 20
-0.342300000000006
 30
0.0
 11
12.3420000000000005
 21
-0.0561999999999996
 31
0.0
  0
LINE
  5
A2
100
AcDbEntity
100
AcDbLine
  8
Folds
 62
256
370
-1
  6
ByLayer
 10
12.3935831953083682
 20
1.499399427386046
 30
0.0
 11
12.3420000000000005
 21
-0.0562000000000005
 31
0.0
  0
ARC
  5
A3
100
AcDbEntity
  8
Outline
 62
256
370
-1
  6
ByLayer
100
AcDbCircle
 10
12.3420000000000005
 20
-0.0561999999999996
 30
0.0
 40
4.0
100
AcDbArc
 50
358.1007855927188075
 51
58.115591572115882
  0
LINE
  5
A4
100
AcDbEntity
100
AcDbLine
  8
Folds
 62
256
370
-1
  6
ByLayer
 10
12.3935831953083682
 20
1.499399427386046
 30
0.0
 11
10.9360537178586572
 21
1.5872658302910638
 31
0.0
  0
LINE
  5
A5
100
AcDbEntity
100
AcDbLine
  8
Outline
 62
256
370
-1
  6
ByLayer
 10
10.9360537178586572
 20
1.5872658302910638
 30
0.0
 11
10.8342999999999989
 21
1.5933999999999973
 31
0.0
  0
LINE
  5
A6
100
AcDbEntity
100
AcDbLine
  8
Outline
 62
256
370
-1
  6
ByLayer
 10
0.050000000000001
 20
8.3958703113123097
 30
0.0
 11
11.8401999999999976
 21
5.4648999999999992
 31
0.0
  0
ARC
  5
A7
100
AcDbEntity
  8
Outline
 62
256
370
-1
  6
ByLayer
100
AcDbCircle
 10
-0.0000000000000014
 20
-0.4512
 30
0.0
 40
0.375
100
AcDbArc
 50
0.6039142151197104
 51
82.3377443392336943
  0
LINE
  5
A8
100
AcDbEntity
100
AcDbLine
  8
Folds
 62
256
370
-1
  6
ByLayer
 10
-10.0
 20
-10.3368000000000002
 30
0.0
 11
-0.3629521728574918
 21
-0.8100000000000005
 31
0.0
  0
LINE
  5
A9
100
AcDbEntity
100
AcDbLine
  8
Folds
 62
256
370
-1
  6
ByLayer
 10
10.0000000000000071
 20
-10.3367999999999967
 30
0.0
 11
0.36295217285749
 21
-0.8100000000000005
 31
0.0
  0
CIRCLE
  5
AA
100
AcDbEntity
100
AcDbCircle
  8
Outline
 62
256
370
-1
  6
ByLayer
 10
-1.7501599999999999
 20
6.5890500000000003
 30
0.0
 40
0.5
  0
CIRCLE
  5
AB
100
AcDbEntity
100
AcDbCircle
  8
Outline
 62
256
370
-1
  6
ByLayer
 10
1.7501599999999999
 20
6.5890500000000003
 30
0.0
 40
0.5
  0
LINE
  5
AC
100
AcDbEntity
100
AcDbLine
  8
Outline
 62
256
370
-1
  6
ByLayer
 10
-16.3398000000000003
 20
-0.188766
 30
0.0
 11
-12.3420000000000005
 21
-0.0562
 31
0.0
  0
LINE
  5
AD
100
AcDbEntity
100
AcDbLine
  8
Outline
 62
256
370
-1
  6
ByLayer
 10
16.3398000000000003
 20
-0.188766
 30
0.0
 11
12.3420000000000005
 21
-0.0562
 31
0.0
  0
ARC
  5
AE
100
AcDbEntity
  8
Outline
 62
256
370
-1
  6
ByLayer
100
AcDbCircle
 10
-10.8343000000000007
 20
1.5933999999999999
 30
0.0
 40
4.0199201020947353
100
AcDbArc
 50
105.9904705064474513
 51
154.2432490633195812
  0
LINE
  5
AF
100
AcDbEntity
100
AcDbLine
  8
Outline
 62
256
370
-1
  6
ByLayer
 10
-10.9360537178586554
 20
1.5872658302910645
 30
0.0
 11
-11.9416974352530172
 21
5.4577794518163438
 31
0.0
  0
LINE
  5
B0
100
AcDbEntity
100
AcDbLine
  8
Folds
 62
256
370
-1
  6
ByLayer
 10
-10.3314000000000004
 20
-0.3423
 30
0.0
 11
-14.4548291574378283
 21
3.3402618283561738
 31
0.0
  0
ARC
  5
B1
100
AcDbEntity
  8
Outline
 62
256
370
-1
  6
ByLayer
100
AcDbCircle
 10
10.8342999999999989
 20
1.5933999999999973
 30
0.0
 40
4.0199201020947379
100
AcDbArc
 50
25.7567509366803762
 51
74.0095294935525487
  0
LINE
  5
B2
100
AcDbEntity
100
AcDbLine
  8
Outline
 62
256
370
-1
  6
ByLayer
 10
10.9360537178586572
 20
1.5872658302910638
 30
0.0
 11
11.9416974352530172
 21
5.4577794518163447
 31
0.0
  0
LINE
  5
B3
100
AcDbEntity
100
AcDbLine
  8
Folds
 62
256
370
-1
  6
ByLayer
 10
10.3313999999999968
 20
-0.342300000000006
 30
0.0
 11
14.4548291574378318
 21
3.3402618283561694
 31
0.0
  0
DIMENSION
  5
B4
100
AcDbEntity
  8
Dimensions
 62
256
370
-1
  6
ByLayer
100
AcDbDimension
 10
-0.3749998203111855
 20
-0.4515671056791238
 30
0.0
 11
-0.000978948477665
 21
0.5487995208298242
 31
0.0
 70
3
 71
5
 72
1
 41
1.0
 42
0.0
  1

  3
Standard
100
AcDbDiametricDimension
 15
0.3749998203111827
 25
-0.4508328943208762
 35
0.0
 40
0.0
  0
DIMENSION
  5
B5
100
AcDbEntity
  8
Dimensions
 62
256
370
-1
  6
ByLayer
100
AcDbDimension
 10
10.0
 20
-16.0
 30
0.0
 11
0.0000000000000001
 21
-15.0
 31
0.0
 70
1
 71
5
 72
1
 41
1.0
 42
0.0
  1

  3
Standard
100
AcDbAlignedDimension
 13
-10.0
 23
-12.3368000000000002
 33
0.0
 14
10.0
 24
-12.3368000000000002
 34
0.0
  0
DIMENSION
  5
B6
100
AcDbEntity
  8
Dimensions
 62
256
370
-1
  6
ByLayer
100
AcDbDimension
 10
-19.0
 20
-12.4019999999999992
 30
0.0
 11
-20.0
 21
-2.0030648443438448
 31
0.0
 70
0
 71
5
 72
1
 41
1.0
 42
0.0
  1

  3
Standard
100
AcDbAlignedDimension
 13
-0.05
 23
8.3958703113123097
 33
0.0
 14
-11.9326000000000008
 24
-12.4019999999999992
 34
0.0
 50
90.0
100
AcDbRotatedDimension
  0
DIMENSION
  5
B7
100
AcDbEntity
  8
Dimensions
 62
256
370
-1
  6
ByLayer
100
AcDbDimension
 10
16.3416432177885582
 20
10.9999999999999982
 30
0.0
 11
0.000043106402476
 21
11.9999999999999982
 31
0.0
 70
0
 71
5
 72
1
 41
1.0
 42
0.0
  1

  3
Standard
100
AcDbAlignedDimension
 13
-16.3415570049836063
 23
0.0033295211349451
 33
0.0
 14
16.3416432177885582
 24
-0.0027759380242706
 34
0.0
 50
0.0
100
AcDbRotatedDimension
  0
LINE
  5
B8
100
AcDbEntity
100
AcDbLine
  8
Outline
 62
256
370
-1
  6
ByLayer
 10
-12.3602833480212571
 20
1.5367031720762272
 30
0.0
 11
-13.9514137659819841
 21
2.9577218601914232
 31
0.0
  0
LINE
  5
B9
100
AcDbEntity
100
AcDbLine
  8
Outline
 62
256
370
-1
  6
ByLayer
 10
-12.4268877928321242
 20
1.4621241423910483
 30
0.0
 11
-14.018016936339798
 21
2.8831440075758592
 31
0.0
  0
LINE
  5
BA
100
AcDbEntity
100
AcDbLine
  8
Outline
 62
256
370
-1
  6
ByLayer
 10
-13.9514137659819841
 20
2.9577218601914232
 30
0.0
 11
-14.018016936339798
 21
2.8831440075758592
 31
0.0
  0
LINE
  5
BB
100
AcDbEntity
100
AcDbLine
  8
Outline
 62
256
370
-1
  6
ByLayer
 10
-12.3602833480212571
 20
1.5367031720762272
 30
0.0
 11
-12.4268877928321242
 21
1.4621241423910485
 31
0.0
  0
LINE
  5
BC
100
AcDbEntity
100
AcDbLine
  8
Outline
 62
256
370
-1
  6
ByLayer
 10
12.3602833480212588
 20
1.5367031720762299
 30
0.0
 11
13.9514137659819788
 21
2.9577218601914144
 31
0.0
  0
LINE
  5
BD
100
AcDbEntity
100
AcDbLine
  8
Outline
 62
256
370
-1
  6
ByLayer
 10
12.4268877928321189
 20
1.4621241423910396
 30
0.0
 11
14.0180169363397944
 21
2.8831440075758534
 31
0.0
  0
LINE
  5
BE
100
AcDbEntity
100
AcDbLine
  8
Outline
 62
256
370
-1
  6
ByLayer
 10
13.9514137659819788
 20
2.9577218601914144
 30
0.0
 11
14.0180169363397944
 21
2.8831440075758534
 31
0.0
  0
LINE
  5
BF
100
AcDbEntity
100
AcDbLine
  8
Outline
 62
256
370
-1
  6
ByLayer
 10
12.3602833480212588
 20
1.5367031720762299
 30
0.0
 11
12.4268877928321189
 21
1.4621241423910396
 31
0.0
  0
LINE
  5
C0
100
AcDbEntity
100
AcDbLine
  8
Folds
 62
256
370
-1
  6
ByLayer
 10
-9.9999971257311362
 20
-10.3368866834042272
 30
0.0
 11
-11.9326000000000008
 21
-12.4019999999999992
 31
0.0
  0
LINE
  5
C1
100
AcDbEntity
100
AcDbLine
  8
Folds
 62
256
370
-1
  6
ByLayer
 10
10.0000000000000071
 20
-10.3368867786127776
 30
0.0
 11
11.9326000000000061
 21
-12.4019999999999975
 31
0.0
  0
LINE
  5
C2
100
AcDbEntity
100
AcDbLine
  8
Outline
 62
256
370
-1
  6
ByLayer
 10
9.875
 20
-12.3368000000000002
 30
0.0
 11
-0.0000000000000036
 21
-12.3368000000000002
 31
0.0
  0
LINE
  5
C3
100
AcDbEntity
100
AcDbLine
  8
Outline
 62
256
370
-1
  6
ByLayer
 10
9.875
 20
-12.3367999999999967
 30
0.0
 11
-0.0000000000000038
 21
-12.3368000000000002
 31
0.0
  0
LINE
  5
C4
100
AcDbEntity
100
AcDbLine
  8
Folds
 62
256
370
-1
  6
ByLayer
 10
10.0
 20
-10.3368000000000002
 30
0.0
 11
10.0
 21
-12.2118000000000002
 31
0.0
  0
LINE
  5
C5
100
AcDbEntity
100
AcDbLine
  8
Outline
 62
256
370
-1
  6
ByLayer
 10
11.9326000000000061
 20
-12.4019999999999975
 30
0.0
 11
10.1249289243692537
 21
-12.3410147189635069
 31
0.0
  0
ARC
  5
C6
100
AcDbEntity
  8
Outline
 62
256
370
-1
  6
ByLayer
100
AcDbCircle
 10
10.0
 20
-12.3368000000000002
 30
0.0
 40
0.125
100
AcDbArc
 50
358.0679999999999836
 51
180.0
  0
LINE
  5
C7
100
AcDbEntity
100
AcDbLine
  8
Outline
 62
256
370
-1
  6
ByLayer
 10
12.3420000000000005
 20
-0.0561999999999996
 30
0.0
 11
12.0030426843430043
 21
-10.2781686661944711
 31
0.0
  0
LINE
  5
C8
100
AcDbEntity
100
AcDbLine
  8
Folds
 62
256
370
-1
  6
ByLayer
 10
10.0000000000000071
 20
-10.3368867786127776
 30
0.0
 11
11.8739685461261679
 21
-10.3989609381532091
 31
0.0
  0
LINE
  5
C9
100
AcDbEntity
100
AcDbLine
  8
Outline
 62
256
370
-1
  6
ByLayer
 10
11.9947562483942924
 20
-10.5280312984108928
 30
0.0
 11
11.9326000000000061
 21
-12.4019999999999975
 31
0.0
  0
ARC
  5
CA
100
AcDbEntity
  8
Outline
 62
256
370
-1
  6
ByLayer
100
AcDbCircle
 10
11.9988999999999955
 20
-10.4031000000000056
 30
0.0
 40
0.125
100
AcDbArc
 50
88.1007855927192054
 51
268.100296126587466
  0
LINE
  5
CB
100
AcDbEntity
100
AcDbLine
  8
Outline
 62
256
370
-1
  6
ByLayer
 10
-12.3420000000000005
 20
-0.0562
 30
0.0
 11
-12.0030426843430114
 21
-10.2781686661944001
 31
0.0
  0
LINE
  5
CC
100
AcDbEntity
100
AcDbLine
  8
Outline
 62
256
370
-1
  6
ByLayer
 10
-11.994756248394296
 20
-10.5280312984108875
 30
0.0
 11
-11.9326000000000008
 21
-12.4019999999999992
 31
0.0
  0
LINE
  5
CD
100
AcDbEntity
100
AcDbLine
  8
Folds
 62
256
370
-1
  6
ByLayer
 10
-9.9999971257311362
 20
-10.3368866834042272
 30
0.0
 11
-11.8739685461261715
 21
-10.3989609381532109
 31
0.0
  0
ARC
  5
CE
100
AcDbEntity
  8
Outline
 62
256
370
-1
  6
ByLayer
100
AcDbCircle
 10
-11.9989000000000008
 20
-10.4031000000000002
 30
0.0
 40
0.125
100
AcDbArc
 50
271.8997038734133298
 51
91.8992144072813488
  0
LINE
  5
CF
100
AcDbEntity
100
AcDbLine
  8
Outline
 62
256
370
-1
  6
ByLayer
 10
-11.9326000000000008
 20
-12.4019999999999992
 30
0.0
 11
-10.124928924369252
 21
-12.3410147189635087
 31
0.0
  0
LINE
  5
D0
100
AcDbEntity
100
AcDbLine
  8
Outline
 62
256
370
-1
  6
ByLayer
 10
-9.875
 20
-12.3368000000000002
 30
0.0
 11
0.0
 21
-12.3368000000000002
 31
0.0
  0
ARC
  5
D1
100
AcDbEntity
  8
Outline
 62
256
370
-1
  6
ByLayer
100
AcDbCircle
 10
-10.0
 20
-12.3368000000000002
 30
0.0
 40
0.125
100
AcDbArc
 50
0.0
 51
181.9322511106707054
  0
LINE
  5
D2
100
AcDbEntity
100
AcDbLine
  8
Folds
 62
256
370
-1
  6
ByLayer
 10
-10.0
 20
-10.3368000000000002
 30
0.0
 11
-10.0
 21
-12.2118000000000002
 31
0.0
  0
LINE
  5
D3
100
AcDbEntity
100
AcDbLine
  8
Folds
 62
256
370
-1
  6
ByLayer
 10
-0.1713078441842442
 20
4.2441534595216401
 30
0.0
 11
-10.8343000000000025
 21
1.5933999999999999
 31
0.0
  0
LINE
  5
D4
100
AcDbEntity
100
AcDbLine
  8
Folds
 62
256
370
-1
  6
ByLayer
 10
0.1713078441842424
 20
4.2441534595216401
 30
0.0
 11
10.8343000000000007
 21
1.5933999999999964
 31
0.0
  0
LINE
  5
D5
100
AcDbEntity
100
AcDbLine
  8
Outline
 62
256
370
-1
  6
ByLayer
 10
-0.0500000000000008
 20
4.1493098342933363
 30
0.0
 11
-0.0500000000000016
 21
-0.0795482813170375
 31
0.0
  0
LINE
  5
D6
100
AcDbEntity
100
AcDbLine
  8
Outline
 62
256
370
-1
  6
ByLayer
 10
0.0500000000000002
 20
4.1493098342933372
 30
0.0
 11
0.0499999999999994
 21
-0.0795482813170375
 31
0.0
  0
LINE
  5
D7
100
AcDbEntity
100
AcDbLine
  8
Outline
 62
256
370
-1
  6
ByLayer
 10
-0.0500000000000008
 20
4.399309834293347
 30
0.0
 11
-0.05
 21
8.3958703113123097
 31
0.0
  0
LINE
  5
D8
100
AcDbEntity
100
AcDbLine
  8
Outline
 62
256
370
-1
  6
ByLayer
 10
0.0500000000000002
 20
4.399309834293347
 30
0.0
 11
0.050000000000001
 21
8.3958703113123097
 31
0.0
  0
ARC
  5
D9
100
AcDbEntity
  8
Outline
 62
256
370
-1
  6
ByLayer
100
AcDbCircle
 10
-0.0500000000000008
 20
4.2743098342933417
 30
0.0
 40
0.125
100
AcDbArc
 50
90.0
 51
270.0
  0
ARC
  5
DA
100
AcDbEntity
  8
Outline
 62
256
370
-1
  6
ByLayer
100
AcDbCircle
 10
0.049999999999999
 20
4.2743098342933417
 30
0.0
 40
0.125
100
AcDbArc
 50
270.0000000000005684
 51
89.9999999999994458
  0
ENDSEC
  0
SECTION
  2
OBJECTS
  0
DICTIONARY
  5
C
100
AcDbDictionary
280
0
281
1
  3
ACAD_GROUP
350
D
  3
ACAD_LAYOUT
350
1A
  3
ACAD_MLINESTYLE
350
17
  3
ACAD_PLOTSETTINGS
350
19
  3
ACAD_PLOTSTYLENAME
350
E
  3
AcDbVariableDictionary
350
DB
  0
DICTIONARY
  5
D
100
AcDbDictionary
280
0
281
1
  0
ACDBDICTIONARYWDFLT
  5
E
100
AcDbDictionary
281
1
  3
Normal
350
F
100
AcDbDictionaryWithDefault
340
F
  0
ACDBPLACEHOLDER
  5
F
  0
DICTIONARY
  5
17
100
AcDbDictionary
280
0
281
1
  3
Standard
350
18
  0
MLINESTYLE
  5
18
100
AcDbMlineStyle
  2
STANDARD
 70
0
  3

 62
256
 51
90.0
 52
90.0
 71
2
 49
0.5
 62
256
  6
BYLAYER
 49
-0.5
 62
256
  6
BYLAYER
  0
DICTIONARY
  5
19
100
AcDbDictionary
280
0
281
1
  0
DICTIONARY
  5
1A
100
AcDbDictionary
281
1
  3
Layout1
350
1E
  3
Layout2
350
26
  3
Model
350
22
  0
LAYOUT
  5
1E
100
AcDbPlotSettings
  1

  2
C:\Program Files\AutoCAD 2002\plotters\DWF ePlot (optimized for plotting).pc3
  4

  6

 40
0.0
 41
0.0
 42
0.0
 43
0.0
 44
0.0
 45
0.0
 46
0.0
 47
0.0
 48
0.0
 49
0.0
140
0.0
141
0.0
142
1.0
143
1.0
 70
688
 72
0
 73
0
 74
5
  7

 75
16
147
1.0
148
0.0
149
0.0
100
AcDbLayout
  1
Layout1
 70
1
 71
1
 10
0.0
 20
0.0
 11
420.0
 21
297.0
 12
0.0
 22
0.0
 32
0.0
 14
100000000000000000000.0
 24
100000000000000000000.0
 34
100000000000000000000.0
 15
-100000000000000000000.0
 25
-100000000000000000000.0
 35
-100000000000000000000.0
146
0.0
 13
0.0
 23
0.0
 33
0.0
 16
1.0
 26
0.0
 36
0.0
 17
0.0
 27
1.0
 37
0.0
 76
0
330
1B
  0
LAYOUT
  5
22
100
AcDbPlotSettings
  1

  2
C:\Program Files\AutoCAD 2002\plotters\DWF ePlot (optimized for plotting).pc3
  4

  6

 40
0.0
 41
0.0
 42
0.0
 43
0.0
 44
0.0
 45
0.0
 46
0.0
 47
0.0
 48
0.0
 49
0.0
140
0.0
141
0.0
142
1.0
143
1.0
 70
1712
 72
0
 73
0
 74
0
  7

 75
0
147
1.0
148
0.0
149
0.0
100
AcDbLayout
  1
Model
 70
1
 71
0
 10
0.0
 20
0.0
 11
12.0
 21
9.0
 12
0.0
 22
0.0
 32
0.0
 14
0.0
 24
0.0
 34
0.0
 15
0.0
 25
0.0
 35
0.0
146
0.0
 13
0.0
 23
0.0
 33
0.0
 16
1.0
 26
0.0
 36
0.0
 17
0.0
 27
1.0
 37
0.0
 76
0
330
1F
  0
LAYOUT
  5
26
100
AcDbPlotSettings
  1

  2
C:\Program Files\AutoCAD 2002\plotters\DWF ePlot (optimized for plotting).pc3
  4

  6

 40
0.0
 41
0.0
 42
0.0
 43
0.0
 44
0.0
 45
0.0
 46
0.0
 47
0.0
 48
0.0
 49
0.0
140
0.0
141
0.0
142
1.0
143
1.0
 70
688
 72
0
 73
0
 74
5
  7

 75
16
147
1.0
148
0.0
149
0.0
100
AcDbLayout
  1
Layout2
 70
1
 71
2
 10
0.0
 20
0.0
 11
12.0
 21
9.0
 12
0.0
 22
0.0
 32
0.0
 14
0.0
 24
0.0
 34
0.0
 15
0.0
 25
0.0
 35
0.0
146
0.0
 13
0.0
 23
0.0
 33
0.0
 16
1.0
 26
0.0
 36
0.0
 17
0.0
 27
1.0
 37
0.0
 76
0
330
23
  0
DICTIONARY
  5
DB
100
AcDbDictionary
281
1
  3
DIMASSOC
350
DD
  3
HIDETEXT
350
DC
  0
DICTIONARYVAR
  5
DC
100
DictionaryVariables
280
0
  1
2
  0
DICTIONARYVAR
  5
DD
100
DictionaryVariables
280
0
  1
1
  0
ENDSEC
  0
EOF
